# xmcd
#
# Track frame offsets:
#	180
#	18296
#	36744
#	54275
#	70773
#	88687
#	108414
#	125196
#	140342
#	159529
#	179027
#	193349
#	214640
#	231289
#	249808
#
# Disc length: 3615 seconds
#
# Revision: 0
# Processed by: cddbd v1.5.1PL2 Copyright (c) Steve Scherf et al.
# Submitted via: audiograbber 1.83.01
#
DISCID=da0e1d0f
DTITLE=Sound Choice - SC8159
DYEAR=1900
DGENRE=Karaoke Country
TTITLE0=Mcentire, Reba - Heart Is A Lonely Hunter, The
TTITLE1=Diamond Rio - Workin' Man Blues
TTITLE2=Stewart, Larry - Losing Your Love
TTITLE3=Mccoy, Neal - For A Change
TTITLE4=Blackhawk - Down In Flames
TTITLE5=Ducas, George - Lipstick Promises
TTITLE6=Alabama - Give Me One More Shot
TTITLE7=Tucker, Tanya - Between The Two Of Them
TTITLE8=Mellons, Ken - I Can Bring Her Back 
TTITLE9=House, James - Little By Little
TTITLE10=Ketchum, Hal - Stay Forever
TTITLE11=Jackson, Alan - Song For The Life
TTITLE12=Martin, Marilyn - Through His Eyes
TTITLE13=Trevino, Rick - Looking For The Light
TTITLE14=Krauss, Alison and Union Station - When You Say Nothing At All
EXTD=
EXTT0=
EXTT1=
EXTT2=
EXTT3=
EXTT4=
EXTT5=
EXTT6=
EXTT7=
EXTT8=
EXTT9=
EXTT10=
EXTT11=
EXTT12=
EXTT13=
EXTT14=
PLAYORDER=
